<mxfile host="app.diagrams.net" modified="2024-05-29T14:05:33.693Z" agent="Mozilla/5.0 (Windows NT 10.0; Win64; x64) AppleWebKit/537.36 (KHTML, like Gecko) Chrome/125.0.0.0 Safari/537.36" version="24.4.9" etag="WwjY_VCXG1L-VDIOLHBn" type="device">
  <diagram id="Y1c3IeYVFOiLVsczLqq2" name="Pagina-1">
    <mxGraphModel dx="1553" dy="556" grid="1" gridSize="10" guides="1" tooltips="1" connect="1" arrows="1" fold="1" page="1" pageScale="1" pageWidth="827" pageHeight="1169" math="0" shadow="0">
      <root>
        <mxCell id="0" />
        <mxCell id="1" parent="0" />
        <mxCell id="rIHy2EwrRhW4wzu36Qd2-1" value="Videogames collection" style="rounded=0;whiteSpace=wrap;html=1;" vertex="1" parent="1">
          <mxGeometry y="40" width="820" height="60" as="geometry" />
        </mxCell>
        <mxCell id="rIHy2EwrRhW4wzu36Qd2-2" value="searchbar" style="rounded=0;whiteSpace=wrap;html=1;" vertex="1" parent="1">
          <mxGeometry y="100" width="820" height="60" as="geometry" />
        </mxCell>
        <mxCell id="rIHy2EwrRhW4wzu36Qd2-4" value="" style="whiteSpace=wrap;html=1;aspect=fixed;" vertex="1" parent="1">
          <mxGeometry x="40" y="160" width="230" height="230" as="geometry" />
        </mxCell>
        <mxCell id="rIHy2EwrRhW4wzu36Qd2-5" value="background image" style="rounded=0;whiteSpace=wrap;html=1;" vertex="1" parent="1">
          <mxGeometry x="40" y="160" width="230" height="100" as="geometry" />
        </mxCell>
        <mxCell id="rIHy2EwrRhW4wzu36Qd2-6" value="title" style="text;html=1;align=center;verticalAlign=middle;whiteSpace=wrap;rounded=0;" vertex="1" parent="1">
          <mxGeometry x="50" y="280" width="60" height="30" as="geometry" />
        </mxCell>
        <mxCell id="rIHy2EwrRhW4wzu36Qd2-7" value="Text" style="text;html=1;align=center;verticalAlign=middle;whiteSpace=wrap;rounded=0;" vertex="1" parent="1">
          <mxGeometry x="190" y="280" width="60" height="30" as="geometry" />
        </mxCell>
        <mxCell id="rIHy2EwrRhW4wzu36Qd2-8" value="Nav bar" style="whiteSpace=wrap;html=1;" vertex="1" parent="1">
          <mxGeometry width="820" height="40" as="geometry" />
        </mxCell>
      </root>
    </mxGraphModel>
  </diagram>
</mxfile>
